<svg id="Layer_2" xmlns="http://www.w3.org/2000/svg" viewBox="0 0 235.71 235.7"><defs><style>.cls-2{fill:#fff}</style></defs><g id="Layer_1-2"><path d="M204.96 0H30.76C13.77 0 0 13.76 0 30.75v174.2c0 16.99 13.77 30.75 30.76 30.75h174.2c16.98 0 30.75-13.76 30.75-30.75V30.75C235.71 13.76 221.94 0 204.96 0ZM35.42 207.68c-7.55-4.37-10.14-14.02-5.78-21.58l47.38-82.06c4.36-7.55 14.02-10.14 21.57-5.78 5.07 2.92 7.9 8.23 7.9 13.69 0 2.68-.68 5.39-2.12 7.88L56.99 201.9c-4.36 7.55-14.02 10.14-21.57 5.78Zm50.85 0c-7.55-4.37-10.14-14.02-5.78-21.58l47.38-82.06c4.36-7.55 14.02-10.14 21.58-5.78 5.06 2.92 7.9 8.23 7.9 13.69 0 2.68-.68 5.39-2.12 7.88l-47.38 82.07c-4.36 7.55-14.02 10.14-21.58 5.78Zm106.13 2.11c-8.72 0-15.79-7.07-15.79-15.79s7.07-15.79 15.79-15.79 15.8 7.07 15.8 15.79-7.07 15.79-15.8 15.79Zm13.68-89.96L158.7 201.9c-4.36 7.55-14.02 10.14-21.57 5.78-7.56-4.37-10.15-14.02-5.78-21.58l47.37-82.06c4.37-7.55 14.02-10.14 21.58-5.78 5.06 2.92 7.9 8.23 7.9 13.69 0 2.68-.68 5.39-2.12 7.88Z" style="fill:#f15a24"/><path class="cls-2" d="M208.2 194c0 8.72-7.07 15.79-15.8 15.79s-15.79-7.07-15.79-15.79 7.07-15.79 15.79-15.79 15.8 7.07 15.8 15.79ZM208.2 111.95c0 2.68-.68 5.39-2.12 7.88L158.7 201.9c-4.36 7.55-14.02 10.14-21.57 5.78-7.56-4.37-10.15-14.02-5.78-21.58l47.37-82.06c4.37-7.55 14.02-10.14 21.58-5.78 5.06 2.92 7.9 8.23 7.9 13.69ZM157.35 111.95c0 2.68-.68 5.39-2.12 7.88l-47.38 82.07c-4.36 7.55-14.02 10.14-21.58 5.78-7.55-4.37-10.14-14.02-5.78-21.58l47.38-82.06c4.36-7.55 14.02-10.14 21.58-5.78 5.06 2.92 7.9 8.23 7.9 13.69ZM106.49 111.95c0 2.68-.68 5.39-2.12 7.88L56.99 201.9c-4.36 7.55-14.02 10.14-21.57 5.78-7.55-4.37-10.14-14.02-5.78-21.58l47.38-82.06c4.36-7.55 14.02-10.14 21.57-5.78 5.07 2.92 7.9 8.23 7.9 13.69Z"/></g></svg>