<svg xmlns="http://www.w3.org/2000/svg" viewBox="0 0 235.71 235.71"><path d="M204.96 0H30.75C13.77 0 0 13.77 0 30.75v174.21c0 16.98 13.77 30.75 30.75 30.75h174.21c16.98 0 30.75-13.77 30.75-30.75V30.75C235.71 13.77 221.94 0 204.96 0ZM35.41 207.68c-7.55-4.36-10.14-14.02-5.78-21.57l47.38-82.06c4.36-7.55 14.02-10.14 21.57-5.78 7.55 4.36 10.14 14.02 5.78 21.57L56.98 201.9c-4.36 7.55-14.02 10.14-21.57 5.78Zm50.85 0c-7.55-4.36-10.14-14.02-5.78-21.57l47.38-82.06c4.36-7.55 14.02-10.14 21.57-5.78 7.55 4.36 10.14 14.02 5.78 21.57l-47.38 82.06c-4.36 7.55-14.02 10.14-21.57 5.78Zm50.85 0c-7.55-4.36-10.14-14.02-5.78-21.57l47.38-82.06c4.36-7.55 14.02-10.14 21.57-5.78 7.55 4.36 10.14 14.02 5.78 21.57l-47.38 82.06c-4.36 7.55-14.02 10.14-21.57 5.78Zm55.28 2.12c-8.72 0-15.79-7.07-15.79-15.79s7.07-15.79 15.79-15.79 15.79 7.07 15.79 15.79-7.07 15.79-15.79 15.79Z" style="fill:#f15a24"/></svg>