<svg id="Layer_2" xmlns="http://www.w3.org/2000/svg" viewBox="0 0 180.68 113.65"><defs><style>.cls-1{fill:#f97316}</style></defs><g id="Layer_1-2"><path class="cls-1" d="M180.68 97.86c0 8.72-7.07 15.79-15.8 15.79s-15.79-7.07-15.79-15.79 7.07-15.79 15.79-15.79 15.8 7.07 15.8 15.79ZM180.68 15.81c0 2.68-.68 5.39-2.12 7.88l-47.38 82.07c-4.36 7.55-14.02 10.14-21.57 5.78-7.56-4.37-10.15-14.02-5.78-21.58L151.2 7.9c4.37-7.55 14.02-10.14 21.58-5.78 5.06 2.92 7.9 8.23 7.9 13.69ZM129.83 15.81c0 2.68-.68 5.39-2.12 7.88l-47.38 82.07c-4.36 7.55-14.02 10.14-21.58 5.78-7.55-4.37-10.14-14.02-5.78-21.58L100.35 7.9c4.36-7.55 14.02-10.14 21.58-5.78 5.06 2.92 7.9 8.23 7.9 13.69ZM78.97 15.81c0 2.68-.68 5.39-2.12 7.88l-47.38 82.07c-4.36 7.55-14.02 10.14-21.57 5.78-7.55-4.37-10.14-14.02-5.78-21.58L49.5 7.9C53.86.35 63.52-2.24 71.07 2.12c5.07 2.92 7.9 8.23 7.9 13.69Z"/></g></svg>