<svg xmlns="http://www.w3.org/2000/svg" viewBox="0 0 256 256"><rect width="256" height="256" rx="22.3" ry="22.3" style="fill:#fff"/><path d="M240.85 192.22v30.37c0 3.34-2.7 6.06-6.04 6.06H55.68c-4.19 0-8.18-1.68-11.13-4.63l-8.94-8.94-18.63-18.61a5.62 5.62 0 0 1-.61-.73c-2.75-3.68-.41-9.11 4.21-9.6.22-.02.46-.02.68-.02h171.02c3.34 0 6.06-2.7 6.06-6.04v-24.79c0-3.34-2.73-6.06-6.06-6.06H55.65c-4.19 0-8.18-1.66-11.13-4.6l-27.57-27.57c-3.82-3.8-1.12-10.33 4.29-10.33h131.35c3.34 0 6.04-2.7 6.04-6.04V75.87c0-3.34-2.7-6.04-6.04-6.04H55.63c-4.19 0-8.18-1.66-11.15-4.63L16.94 37.66c-3.8-3.8-1.1-10.33 4.29-10.33h93.3c4.19 0 8.18 1.66 11.13 4.6l6.97 6.97 21.02 21.09s.05.05.05.07l7.74 7.77 36.12 36.12c2.31 2.31 3.6 5.43 3.6 8.67v32.12c0 1.61.63 3.14 1.78 4.29l34.19 34.19c2.39 2.39 3.73 5.63 3.73 8.99Z" style="fill:#27a2dc"/></svg>