<svg id="Layer_2" xmlns="http://www.w3.org/2000/svg" viewBox="0 0 1133.74 235.7"><defs><style>.cls-2{fill:#fff}.cls-3{fill:#b3b3b3}</style></defs><g id="Layer_1-2"><path d="M204.96 0H30.76C13.77 0 0 13.76 0 30.75v174.2c0 16.99 13.77 30.75 30.76 30.75h174.2c16.98 0 30.75-13.76 30.75-30.75V30.75C235.71 13.76 221.94 0 204.96 0ZM35.42 207.68c-7.55-4.37-10.14-14.02-5.78-21.58l47.38-82.06c4.36-7.55 14.02-10.14 21.57-5.78 5.07 2.92 7.9 8.23 7.9 13.69 0 2.68-.68 5.39-2.12 7.88L56.99 201.9c-4.36 7.55-14.02 10.14-21.57 5.78Zm50.85 0c-7.55-4.37-10.14-14.02-5.78-21.58l47.38-82.06c4.36-7.55 14.02-10.14 21.58-5.78 5.06 2.92 7.9 8.23 7.9 13.69 0 2.68-.68 5.39-2.12 7.88l-47.38 82.07c-4.36 7.55-14.02 10.14-21.58 5.78Zm106.13 2.11c-8.72 0-15.79-7.07-15.79-15.79s7.07-15.79 15.79-15.79 15.8 7.07 15.8 15.79-7.07 15.79-15.8 15.79Zm13.68-89.96L158.7 201.9c-4.36 7.55-14.02 10.14-21.57 5.78-7.56-4.37-10.15-14.02-5.78-21.58l47.37-82.06c4.37-7.55 14.02-10.14 21.58-5.78 5.06 2.92 7.9 8.23 7.9 13.69 0 2.68-.68 5.39-2.12 7.88Z" style="fill:#f97316"/><path class="cls-2" d="M208.2 194c0 8.72-7.07 15.79-15.8 15.79s-15.79-7.07-15.79-15.79 7.07-15.79 15.79-15.79 15.8 7.07 15.8 15.79ZM208.2 111.95c0 2.68-.68 5.39-2.12 7.88L158.7 201.9c-4.36 7.55-14.02 10.14-21.57 5.78-7.56-4.37-10.15-14.02-5.78-21.58l47.37-82.06c4.37-7.55 14.02-10.14 21.58-5.78 5.06 2.92 7.9 8.23 7.9 13.69ZM157.35 111.95c0 2.68-.68 5.39-2.12 7.88l-47.38 82.07c-4.36 7.55-14.02 10.14-21.58 5.78-7.55-4.37-10.14-14.02-5.78-21.58l47.38-82.06c4.36-7.55 14.02-10.14 21.58-5.78 5.06 2.92 7.9 8.23 7.9 13.69ZM106.49 111.95c0 2.68-.68 5.39-2.12 7.88L56.99 201.9c-4.36 7.55-14.02 10.14-21.57 5.78-7.55-4.37-10.14-14.02-5.78-21.58l47.38-82.06c4.36-7.55 14.02-10.14 21.57-5.78 5.07 2.92 7.9 8.23 7.9 13.69Z"/><g id="ScaffoldingSpecialists"><path class="cls-2" d="M293.74 81.52h28.92l11.7 42.53h.21l11.7-42.53h29.13v76.02h-20.09v-47.63h-.21l-12.65 47.63h-16.27l-12.65-47.63h-.21v47.63h-19.56V81.52ZM384.53 81.52h22.22v76.02h-22.22V81.52ZM415.89 81.52h22.22v56.99h32.53v19.03h-54.76V81.52ZM462.88 81.52h65.49v18.93h-21.8v57.09h-22.22v-57.09h-21.48V81.52ZM528.9 119.79c0-22.75 14.89-39.66 38.49-39.66s38.7 16.91 38.7 39.66-15.1 39.55-38.7 39.55-38.49-16.8-38.49-39.55Zm54.65 0c0-12.44-5.42-21.9-16.06-21.9s-16.06 9.46-16.06 21.9 5.42 21.8 16.06 21.8 16.06-9.36 16.06-21.8ZM612.26 81.52h22.22l24.88 42.74h.21V81.52h21.48v76.02h-22.96l-24.14-43.06h-.21v43.06h-21.48V81.52ZM706.02 81.52h22.22v24.88l22.97-24.88h25.52l-28.39 30.62 29.98 45.4h-25.84l-19.35-30.09-4.89 5.53v24.56h-22.22V81.52ZM782.47 81.52h59.22v18.07h-37v10.31h30.94v16.69h-30.94v11.91h38.06v19.03h-60.28V81.52ZM871.45 130.85 845.4 81.52h24.14l8.08 16.91c2.76 5.74 5.1 12.23 5.1 12.23h.21s2.45-6.49 5.21-12.23l8.08-16.91h23.6l-26.16 49.33v26.69h-22.22v-26.69ZM924.18 81.52h22.22l24.88 42.74h.21V81.52h21.48v76.02h-22.96l-24.14-43.06h-.21v43.06h-21.48V81.52ZM1002.11 81.52h59.22v18.07h-37v10.31h30.94v16.69h-30.94v11.91h38.06v19.03h-60.28V81.52ZM1065.9 133.29h22.75c.74 6.06 5.42 8.93 12.76 8.93 4.36 0 9.67-1.7 9.67-6.27s-5.1-5.74-14.46-8.08c-12.76-3.19-28.18-7.55-28.18-23.71 0-17.44 14.25-24.03 31.37-24.03 15.74 0 30.2 6.59 30.51 23.18h-22.01c-.64-4.15-3.61-6.8-9.68-6.8-4.89 0-8.29 2.23-8.29 5.32 0 4.47 6.49 5.1 17.86 7.87 12.76 3.08 25.52 8.08 25.52 24.24s-14.78 25.41-32.75 25.41c-19.78 0-34.77-8.51-35.09-26.05Z"/></g><g id="MiltonKeynes"><path class="cls-3" d="M293.74 215.4h9.79c.44 3.96 3.02 5.61 7.7 5.61 3.19 0 6.32-1.15 6.32-4.12 0-3.14-3.19-3.79-8.58-5.11-6.82-1.59-14.02-3.68-14.02-11.93s6.82-12.1 15.62-12.1 15.12 3.85 15.51 12.1h-9.51c-.38-3.02-2.69-4.73-6.32-4.73-3.41 0-5.66 1.49-5.66 3.68 0 2.75 3.02 3.41 8.91 4.73 7.31 1.71 13.91 3.96 13.91 12.37s-7.04 12.81-16.11 12.81c-10.45 0-17.32-4.62-17.54-13.31ZM329.75 208.25c0-11.71 7.64-20.57 19.36-20.57 4.56 0 8.41 1.32 11.22 3.46 3.41 2.58 5.39 6.43 5.88 10.83h-9.73c-.5-3.52-3.24-6.21-7.42-6.21-6.38 0-9.4 5.33-9.4 12.48s3.63 12.43 9.46 12.43c4.34 0 7.2-2.75 7.64-6.54h9.73c-.27 3.9-2.04 7.48-4.73 10.06-3.03 2.91-7.04 4.45-12.59 4.45-11.55 0-19.41-8.63-19.41-20.4ZM379.96 188.45h10.01l14.19 39.32h-10.23l-2.31-7.09h-13.75l-2.26 7.09h-9.79l14.13-39.32Zm9.4 25.24-2.97-9.51c-.66-2.04-1.54-5.55-1.54-5.55h-.11s-.94 3.52-1.59 5.55l-3.02 9.51h9.24ZM406.9 188.45h29.26v8.19h-19.52v7.97h16.33v7.87h-16.33v15.29h-9.73v-39.32ZM440 188.45h29.26v8.19h-19.52v7.97h16.33v7.87h-16.33v15.29h-9.73v-39.32ZM470.41 208.19c0-11.77 7.53-20.51 19.41-20.51s19.47 8.74 19.47 20.51-7.53 20.51-19.47 20.51-19.41-8.74-19.41-20.51Zm28.98 0c0-7.15-3.13-12.65-9.51-12.65s-9.57 5.5-9.57 12.65 3.24 12.59 9.57 12.59 9.51-5.44 9.51-12.59ZM513.08 188.45h9.73v31.07h17.65v8.25h-27.39v-39.32ZM544.15 188.45h16.77c10.89 0 18.2 7.86 18.2 19.91 0 6.93-2.42 12.48-6.82 15.84-3.08 2.31-7.04 3.57-11.99 3.57h-16.17v-39.32Zm15.45 31.13c6.38 0 9.68-4.01 9.68-11.22s-3.46-11.77-9.57-11.77h-5.83v22.99h5.72ZM582.97 188.45h9.73v39.32h-9.73v-39.32ZM598.09 188.45h9.79l11.66 19.74c.6 1.1 2.69 5 2.69 5h.11s-.11-4.73-.11-6.1v-18.64h9.51v39.32h-9.79L610.4 208.3c-.66-1.05-2.8-5.28-2.8-5.28h-.11s.11 5.06.11 6.43v18.31h-9.51v-39.32ZM640.87 223.15c-3.41-3.74-5.28-8.91-5.28-14.9s2.09-11.6 5.83-15.34c3.24-3.3 7.81-5.22 13.47-5.22 10.12 0 16.17 5.39 17.43 13.64h-9.46c-.72-3.19-3.35-5.61-7.64-5.61-6.49 0-9.73 5.39-9.73 12.54s3.74 12.54 9.9 12.54c5.11 0 8.14-3.41 8.52-6.87v-.11h-7.37v-7.15h16.39v21.12h-6.82l-.55-4.73h-.11c-2.59 4.01-6.43 5.61-11.16 5.61-5.61 0-10.17-1.98-13.42-5.5ZM684.31 215.4h9.79c.44 3.96 3.02 5.61 7.7 5.61 3.19 0 6.32-1.15 6.32-4.12 0-3.14-3.19-3.79-8.58-5.11-6.82-1.59-14.02-3.68-14.02-11.93s6.82-12.1 15.62-12.1 15.12 3.85 15.51 12.1h-9.51c-.38-3.02-2.69-4.73-6.32-4.73-3.41 0-5.66 1.49-5.66 3.68 0 2.75 3.02 3.41 8.91 4.73 7.31 1.71 13.91 3.96 13.91 12.37s-7.04 12.81-16.11 12.81c-10.45 0-17.32-4.62-17.54-13.31ZM721.93 188.45h17.71c4.78 0 8.3 1.32 10.72 3.63 2.53 2.36 3.96 5.72 3.96 9.68 0 7.53-5.23 12.87-13.31 12.87h-9.18v13.14h-9.9v-39.32Zm17.1 18.48c3.52 0 5.5-2.09 5.5-5.22s-2.03-5.06-5.5-5.06h-7.2v10.28h7.2ZM757.78 188.45h29.81v8.03h-20.07v7.04h17.21v7.59h-17.21v8.41h20.4v8.25h-30.14v-39.32ZM789.89 208.25c0-11.71 7.64-20.57 19.36-20.57 4.56 0 8.41 1.32 11.22 3.46 3.41 2.58 5.39 6.43 5.88 10.83h-9.73c-.5-3.52-3.24-6.21-7.42-6.21-6.38 0-9.4 5.33-9.4 12.48s3.63 12.43 9.46 12.43c4.34 0 7.2-2.75 7.64-6.54h9.73c-.27 3.9-2.04 7.48-4.73 10.06-3.02 2.91-7.04 4.45-12.59 4.45-11.55 0-19.41-8.63-19.41-20.4ZM830.14 188.45h9.73v39.32h-9.73v-39.32ZM856.65 188.45h10.01l14.19 39.32h-10.23l-2.31-7.09h-13.75l-2.25 7.09h-9.79l14.13-39.32Zm9.4 25.24-2.97-9.51c-.66-2.04-1.54-5.55-1.54-5.55h-.11s-.94 3.52-1.59 5.55l-3.02 9.51h9.24ZM883.59 188.45h9.73v31.07h17.65v8.25h-27.39v-39.32ZM914.71 188.45h9.73v39.32h-9.73v-39.32ZM927.97 215.4h9.79c.44 3.96 3.02 5.61 7.7 5.61 3.19 0 6.32-1.15 6.32-4.12 0-3.14-3.19-3.79-8.58-5.11-6.82-1.59-14.02-3.68-14.02-11.93s6.82-12.1 15.62-12.1 15.12 3.85 15.51 12.1h-9.51c-.38-3.02-2.69-4.73-6.32-4.73-3.41 0-5.66 1.49-5.66 3.68 0 2.75 3.02 3.41 8.91 4.73 7.31 1.71 13.91 3.96 13.91 12.37s-7.04 12.81-16.11 12.81c-10.45 0-17.32-4.62-17.54-13.31ZM973.88 196.7h-11.44v-8.25h32.72v8.25h-11.55v31.07h-9.73V196.7ZM996.37 215.4h9.79c.44 3.96 3.02 5.61 7.7 5.61 3.19 0 6.32-1.15 6.32-4.12 0-3.14-3.19-3.79-8.58-5.11-6.82-1.59-14.02-3.68-14.02-11.93s6.82-12.1 15.62-12.1 15.12 3.85 15.51 12.1h-9.51c-.38-3.02-2.69-4.73-6.32-4.73-3.41 0-5.66 1.49-5.66 3.68 0 2.75 3.02 3.41 8.91 4.73 7.31 1.71 13.91 3.96 13.91 12.37s-7.04 12.81-16.11 12.81c-10.45 0-17.32-4.62-17.54-13.31ZM1043.5 188.45h4.95v34.76h20.62v4.56h-25.57v-39.32ZM1065.99 188.45h31.13v4.34h-13.09v34.98h-4.95v-34.98h-13.09v-4.34ZM1102 188.45h14.3c11.82 0 17.43 8.03 17.43 19.8s-5.99 19.52-17.82 19.52H1102v-39.32Zm13.75 34.98c9.24 0 12.92-5.94 12.92-15.18s-3.3-15.51-12.54-15.51h-9.18v30.69h8.8Z"/></g></g></svg>