<svg xmlns="http://www.w3.org/2000/svg" viewBox="0 0 225.7 201.32"><path d="M225.69 164.89v30.37c0 3.34-2.7 6.06-6.04 6.06H40.52c-4.19 0-8.18-1.68-11.13-4.63l-8.94-8.94-18.63-18.61c-.22-.23-.43-.47-.61-.73-2.75-3.68-.41-9.11 4.21-9.6.22-.02.46-.02.68-.02h171.02c3.34 0 6.06-2.7 6.06-6.04v-24.79c0-3.34-2.73-6.06-6.06-6.06H40.49c-4.19 0-8.18-1.66-11.13-4.6L1.79 89.73C-2.03 85.93.67 79.4 6.08 79.4h131.35c3.34 0 6.04-2.7 6.04-6.04V48.54c0-3.34-2.7-6.04-6.04-6.04H40.47c-4.19 0-8.18-1.66-11.15-4.63L1.78 10.33C-2.02 6.53.68 0 6.07 0h93.3c4.19 0 8.18 1.66 11.13 4.6l6.97 6.97 21.02 21.09s.05.05.05.07l7.74 7.77 36.12 36.12c2.31 2.31 3.6 5.43 3.6 8.67v32.12c0 1.61.63 3.14 1.78 4.29l34.19 34.19c2.39 2.39 3.73 5.63 3.73 8.99Z" style="fill:#27a2dc"/></svg>